#define v42_width 64
#define v42_height 64
static unsigned char v42_bits[] = {
   0x1f, 0x2e, 0xb4, 0x50, 0xc3, 0x86, 0x1a, 0x3e, 0x0f, 0x11, 0x7c, 0xe8,
   0xd0, 0x43, 0x0a, 0x1f, 0x80, 0x03, 0x07, 0x14, 0x50, 0xe0, 0x80, 0x01,
   0xc0, 0x81, 0x06, 0x0a, 0x3c, 0xd0, 0xc0, 0x81, 0xe0, 0x40, 0x03, 0x07,
   0x0a, 0x38, 0x60, 0x80, 0x70, 0x60, 0x81, 0x06, 0x0e, 0x2a, 0x70, 0xe0,
   0x3e, 0xd0, 0xc0, 0x82, 0x05, 0x16, 0x2c, 0xf0, 0x1f, 0x58, 0xfe, 0xff,
   0xff, 0x3f, 0x0a, 0xf8, 0x0f, 0x34, 0xff, 0xff, 0xff, 0x7f, 0x0d, 0xfc,
   0x07, 0x1c, 0xff, 0xff, 0xff, 0x7f, 0x05, 0x6e, 0x03, 0x85, 0xff, 0xff,
   0xaf, 0xff, 0x03, 0x0f, 0x81, 0x86, 0xff, 0xff, 0xfb, 0xff, 0x81, 0x03,
   0x80, 0xc1, 0xff, 0xff, 0xff, 0xff, 0x41, 0x02, 0x60, 0xe1, 0xff, 0xff,
   0xfe, 0xff, 0xd3, 0x80, 0xd0, 0xe0, 0xf7, 0xbf, 0xff, 0xff, 0xb3, 0x80,
   0x32, 0xf0, 0xff, 0xff, 0xff, 0x7f, 0x77, 0xe0, 0x17, 0xf0, 0xfd, 0xf5,
   0x3f, 0xff, 0x2f, 0xf0, 0x12, 0xfc, 0xb7, 0xf0, 0xbf, 0xde, 0x1f, 0xd0,
   0x0d, 0xfc, 0x5f, 0xf8, 0xdf, 0xed, 0x0f, 0x14, 0x03, 0x7f, 0x1f, 0xf8,
   0xbf, 0xfe, 0x1f, 0x6e, 0x00, 0xbf, 0x3f, 0xf8, 0xdf, 0xff, 0x3f, 0x2d,
   0x81, 0xfe, 0x3f, 0xfc, 0x6f, 0xff, 0xbf, 0x25, 0xc0, 0xdf, 0x3f, 0xf6,
   0x9f, 0xff, 0xff, 0x03, 0xa4, 0xff, 0x3f, 0xf7, 0xd7, 0xff, 0x7f, 0x81,
   0xba, 0xff, 0xbf, 0xe5, 0xef, 0x7f, 0xff, 0x40, 0xd5, 0xff, 0xbf, 0x81,
   0xe3, 0xff, 0xff, 0xa1, 0xdf, 0xff, 0x7f, 0x41, 0xf1, 0xff, 0xff, 0xb1,
   0xea, 0xff, 0x7f, 0x60, 0xf1, 0xbf, 0xff, 0xab, 0xe5, 0xdf, 0x7f, 0xd0,
   0xe0, 0xbf, 0xff, 0x77, 0xf3, 0xff, 0x3f, 0x30, 0xe0, 0x9f, 0xff, 0xd7,
   0xf9, 0xbf, 0x1f, 0x1c, 0xd8, 0xc7, 0xfe, 0x6f, 0xf8, 0xbf, 0x06, 0x14,
   0x38, 0xa0, 0xff, 0x2f, 0xfc, 0x9f, 0x05, 0x1f, 0x54, 0x70, 0xfc, 0x0f,
   0xfc, 0xbf, 0xc1, 0xff, 0x1e, 0xe8, 0xfe, 0x8f, 0xfa, 0x7f, 0xe1, 0xff,
   0x05, 0x1c, 0xfe, 0x47, 0xfb, 0xff, 0xf0, 0xff, 0x07, 0xea, 0xfb, 0xc7,
   0xed, 0xff, 0xff, 0xff, 0x03, 0xfb, 0xff, 0x73, 0xeb, 0xff, 0xff, 0xff,
   0x87, 0xfe, 0xff, 0xdb, 0xc6, 0xff, 0xff, 0xff, 0xc7, 0xff, 0xff, 0x35,
   0x81, 0xef, 0xff, 0xff, 0xe7, 0xff, 0xff, 0xed, 0xc0, 0xff, 0xff, 0xff,
   0xd7, 0xff, 0xfb, 0x56, 0xc0, 0xff, 0xff, 0xff, 0xdf, 0xff, 0xff, 0x06,
   0x60, 0xef, 0xff, 0xff, 0xb7, 0xff, 0x7d, 0x03, 0x6a, 0xfe, 0xff, 0xff,
   0x9b, 0xff, 0x7f, 0x01, 0x1d, 0xfc, 0xff, 0xff, 0x07, 0xff, 0xbf, 0x80,
   0x18, 0xfc, 0xff, 0xff, 0x07, 0xbe, 0xdf, 0xa0, 0x05, 0xfc, 0xff, 0xff,
   0x0f, 0xfd, 0x1f, 0x20, 0x04, 0xfa, 0xff, 0xff, 0x8f, 0xff, 0x3f, 0xe8,
   0x03, 0xf7, 0xfd, 0xff, 0xff, 0xff, 0x0f, 0x88, 0x81, 0xf2, 0xff, 0xff,
   0xef, 0xff, 0x07, 0xf6, 0x40, 0xe3, 0xff, 0xff, 0xff, 0xff, 0x03, 0x42,
   0xe0, 0xc0, 0xff, 0xff, 0xff, 0xff, 0x01, 0x27, 0x60, 0xe0, 0xff, 0xff,
   0xfb, 0xff, 0xc1, 0x00, 0x3e, 0xd0, 0xff, 0xff, 0xfe, 0xff, 0xa0, 0x01,
   0x1f, 0xb0, 0xff, 0xff, 0xff, 0xff, 0xd0, 0x80, 0x0f, 0x74, 0xff, 0xff,
   0xff, 0x7f, 0x70, 0xc0, 0x07, 0x2c, 0xff, 0xff, 0xff, 0x7f, 0x2c, 0xe0,
   0x03, 0x0e, 0x7c, 0xe5, 0xab, 0x17, 0x14, 0xf0, 0x01, 0x07, 0x2a, 0x28,
   0xc0, 0x02, 0x0f, 0xf8, 0x00, 0x04, 0x16, 0x68, 0xa0, 0x81, 0x05, 0xfc,
   0xc0, 0x01, 0x0b, 0x3c, 0x70, 0x40, 0x03, 0x6e, 0xe0, 0x80, 0x06, 0x16,
   0x68, 0xc0, 0x01, 0x07, 0x72, 0xc0, 0x01, 0x0d, 0x34, 0x30, 0x80, 0x03,
   0x3f, 0xdc, 0xe1, 0x83, 0x1f, 0x6a, 0xf8, 0xa1 };
